<?xml version="1.0" encoding="UTF-8"?>
<svg xmlns="http://www.w3.org/2000/svg" xmlns:xlink="http://www.w3.org/1999/xlink" width="716pt" height="491pt" viewBox="0 0 716 491" version="1.1">
<g id="surface1">
<path style="fill:none;stroke-width:4.67813;stroke-linecap:butt;stroke-linejoin:miter;stroke:rgb(0%,0%,0%);stroke-opacity:1;stroke-miterlimit:2.61313;" d="M 4172.8125 2960.9375 L 4172.8125 2960.9375 " transform="matrix(0.1,0,0,-0.1,0,491)"/>
<path style="fill:none;stroke-width:4.67813;stroke-linecap:butt;stroke-linejoin:miter;stroke:rgb(0%,0%,0%);stroke-opacity:1;stroke-miterlimit:2.61313;" d="M 875.859375 1616.875 L 875.859375 1616.875 " transform="matrix(0.1,0,0,-0.1,0,491)"/>
<path style=" stroke:none;fill-rule:evenodd;fill:rgb(13.699341%,12.199402%,12.5%);fill-opacity:1;" d="M 156.855469 482.632813 C 140.839844 482.632813 130.113281 469.511719 130.113281 450.027344 C 130.113281 430.496094 140.839844 417.375 156.855469 417.375 C 172.804688 417.375 183.53125 430.496094 183.53125 450.027344 C 183.53125 469.511719 172.804688 482.632813 156.855469 482.632813 Z M 156.855469 409.6875 C 129.539063 409.6875 119.8125 431.425781 119.8125 450.027344 C 119.8125 468.582031 129.539063 490.316406 156.855469 490.316406 C 184.101563 490.316406 193.824219 468.582031 193.824219 450.027344 C 193.824219 431.425781 184.101563 409.691406 156.855469 409.6875 "/>
<path style=" stroke:none;fill-rule:evenodd;fill:rgb(13.699341%,12.199402%,12.5%);fill-opacity:1;" d="M 214.5625 423.839844 C 214.5625 421.734375 214.5625 411.207031 214.5625 411.207031 L 205.839844 411.207031 L 205.839844 488.210938 L 215.207031 488.210938 L 215.207031 450.175781 L 215.136719 449.683594 C 215.207031 435.488281 219.214844 418.550781 238.304688 418.550781 L 241.238281 418.699219 L 241.238281 418.40625 L 241.738281 409.398438 L 240.664063 409.398438 C 227.722656 409.398438 218.996094 414.292969 214.5625 423.839844 "/>
<path style=" stroke:none;fill-rule:evenodd;fill:rgb(13.699341%,12.199402%,12.5%);fill-opacity:1;" d="M 419.371094 426.234375 C 412.933594 424.128906 408.285156 422.90625 400.5625 422.90625 C 394.910156 422.90625 388.191406 424.863281 388.191406 431.574219 C 388.191406 444.003906 424.660156 436.125 424.660156 464.371094 C 424.664063 482.632813 407.929688 489.925781 390.910156 489.925781 C 382.898438 489.925781 374.746094 488.554688 367.09375 486.59375 L 368.3125 469.855469 C 374.894531 473.035156 381.824219 475.042969 388.976563 475.042969 C 394.339844 475.042969 402.777344 473.035156 402.777344 465.445313 C 402.78125 450.078125 366.308594 460.601563 366.308594 432.304688 C 366.308594 415.464844 381.46875 407.976563 397.917969 407.976563 C 407.785156 407.976563 414.222656 409.542969 420.800781 410.867188 L 419.371094 426.234375 "/>
<path style="fill:none;stroke-width:173.35;stroke-linecap:butt;stroke-linejoin:miter;stroke:rgb(13.699341%,12.199402%,12.5%);stroke-opacity:1;stroke-miterlimit:10;" d="M 5275.273438 27.890625 L 5275.273438 810.664063 " transform="matrix(0.1,0,0,-0.1,0,491)"/>
<path style=" stroke:none;fill-rule:evenodd;fill:rgb(13.699341%,12.199402%,12.5%);fill-opacity:1;" d="M 670.515625 426.234375 C 664.078125 424.128906 659.355469 422.90625 651.703125 422.90625 C 646.054688 422.90625 639.335938 424.863281 639.335938 431.574219 C 639.335938 444.003906 675.804688 436.125 675.804688 464.371094 C 675.804688 482.632813 659.070313 489.925781 641.980469 489.925781 C 633.96875 489.925781 625.890625 488.554688 618.167969 486.59375 L 619.457031 469.855469 C 626.035156 473.035156 632.898438 475.042969 640.121094 475.042969 C 645.414063 475.042969 653.851563 473.035156 653.851563 465.445313 C 653.851563 450.078125 617.382813 460.601563 617.382813 432.304688 C 617.382813 415.464844 632.613281 407.976563 649.0625 407.976563 C 658.929688 407.976563 665.292969 409.542969 671.871094 410.867188 L 670.515625 426.234375 "/>
<path style=" stroke:none;fill-rule:evenodd;fill:rgb(13.699341%,12.199402%,12.5%);fill-opacity:1;" d="M 476.078125 444.984375 L 505.824219 409.933594 L 481.082031 409.933594 L 455.980469 441.214844 L 455.695313 441.214844 L 455.695313 367.785156 L 434.746094 374.199219 L 434.746094 488.210938 L 455.695313 488.210938 L 455.695313 450.175781 L 455.980469 450.175781 L 482.941406 488.210938 L 509.546875 488.210938 L 476.078125 444.984375 "/>
<path style=" stroke:none;fill-rule:evenodd;fill:rgb(13.699341%,12.199402%,12.5%);fill-opacity:1;" d="M 305.308594 482.335938 C 283.714844 482.335938 281.425781 459.523438 281.425781 449.730469 C 281.425781 439.894531 283.714844 417.082031 305.308594 417.082031 C 321.828125 417.082031 329.195313 433.480469 329.195313 449.730469 C 329.195313 465.988281 321.828125 482.335938 305.308594 482.335938 Z M 338.132813 372.09375 L 329.195313 374.835938 C 329.195313 374.835938 329.195313 420.703125 329.195313 422.417969 C 327.265625 419.140625 320.039063 409.199219 303.738281 409.398438 C 276.777344 409.738281 271.128906 431.523438 271.128906 449.730469 C 271.128906 474.554688 283.640625 490.023438 303.738281 490.023438 C 315.679688 490.023438 323.835938 485.613281 329.195313 476.265625 C 329.195313 477.050781 329.195313 488.210938 329.195313 488.210938 L 338.5625 488.210938 L 338.5625 371.996094 L 338.132813 372.09375 "/>
<path style=" stroke:none;fill-rule:evenodd;fill:rgb(13.699341%,12.199402%,12.5%);fill-opacity:1;" d="M 260.402344 372.09375 L 251.464844 374.835938 L 251.464844 488.210938 L 260.761719 488.210938 L 260.761719 371.996094 L 260.402344 372.09375 "/>
<path style=" stroke:none;fill-rule:evenodd;fill:rgb(13.699341%,12.199402%,12.5%);fill-opacity:1;" d="M 551.59375 374.199219 L 551.59375 488.210938 L 572.546875 488.210938 L 572.546875 367.785156 L 551.59375 374.199219 "/>
<path style=" stroke:none;fill-rule:evenodd;fill:rgb(13.699341%,12.199402%,12.5%);fill-opacity:1;" d="M 584.628906 374.199219 L 584.628906 488.210938 L 605.582031 488.210938 L 605.582031 367.785156 L 584.628906 374.199219 "/>
<path style=" stroke:none;fill-rule:evenodd;fill:rgb(13.699341%,12.199402%,12.5%);fill-opacity:1;" d="M 539.648438 380.710938 C 539.648438 374.246094 534.429688 369.011719 527.992188 369.011719 C 521.558594 369.011719 516.265625 374.246094 516.265625 380.710938 C 516.265625 387.171875 521.558594 392.359375 527.992188 392.359375 C 534.429688 392.359375 539.648438 387.171875 539.648438 380.710938 "/>
<path style=" stroke:none;fill-rule:evenodd;fill:rgb(13.699341%,12.199402%,12.5%);fill-opacity:1;" d="M 10.90625 411.207031 L 0.894531 411.207031 L 1.035156 411.597656 C 1.464844 413.070313 26.0625 487.328125 26.347656 488.015625 L 26.421875 488.210938 L 37.859375 488.210938 C 37.859375 488.210938 59.53125 421.585938 59.671875 421.148438 C 59.890625 421.148438 60.101563 421.148438 60.386719 421.148438 C 60.460938 421.585938 82.125 488.210938 82.125 488.210938 L 93.640625 488.210938 L 119.742188 411.207031 L 110.445313 411.207031 C 110.445313 411.207031 88.492188 477.832031 88.347656 478.273438 C 88.132813 478.273438 87.847656 478.273438 87.632813 478.273438 C 87.5625 477.832031 66.539063 411.207031 66.539063 411.207031 L 55.023438 411.207031 C 55.023438 411.207031 32.929688 477.832031 32.785156 478.273438 C 32.570313 478.273438 32.285156 478.273438 32.070313 478.273438 C 31.929688 477.832031 11.117188 411.207031 11.117188 411.207031 L 10.90625 411.207031 "/>
<path style=" stroke:none;fill-rule:evenodd;fill:rgb(92.89856%,10.998535%,14.099121%);fill-opacity:1;" d="M 393.910156 184.113281 C 393.910156 184.113281 466.636719 200.761719 505.679688 240.605469 C 505.679688 240.605469 542.652344 272.230469 557.957031 335.871094 C 557.957031 335.871094 558.457031 330.582031 557.671875 324.511719 C 557.671875 324.511719 560.101563 329.945313 561.816406 335.675781 C 561.816406 335.675781 561.742188 331.609375 561.03125 328.914063 C 561.03125 328.914063 565.25 339.148438 566.679688 347.664063 C 566.679688 347.664063 560.746094 298.859375 535 254.65625 C 535 254.65625 553.523438 262.097656 574.976563 341.746094 C 574.976563 341.746094 565.464844 275.171875 537.574219 238.988281 C 537.578125 238.988281 501.175781 180.589844 413.863281 154.300781 C 413.867188 154.300781 403.636719 159.933594 405.636719 169.28125 C 405.640625 169.28125 405.351563 180.882813 393.910156 184.113281 "/>
<path style="fill:none;stroke-width:1.17798;stroke-linecap:round;stroke-linejoin:miter;stroke:rgb(92.89856%,10.998535%,14.099121%);stroke-opacity:1;stroke-miterlimit:4;" d="M 5691.875 1712.382813 C 5397.929688 3148.632813 4175.078125 3387.539063 4175.078125 3387.539063 " transform="matrix(0.1,0,0,-0.1,0,491)"/>
<path style="fill:none;stroke-width:3.54741;stroke-linecap:round;stroke-linejoin:miter;stroke:rgb(92.89856%,10.998535%,14.099121%);stroke-opacity:1;stroke-miterlimit:4;" d="M 4175.078125 3387.539063 C 4175.078125 3387.539063 5381.484375 3025.273438 5642.5 1999.21875 " transform="matrix(0.1,0,0,-0.1,0,491)"/>
<path style=" stroke:none;fill-rule:evenodd;fill:rgb(0%,37.599182%,65.499878%);fill-opacity:1;" d="M 461.058594 24.917969 C 450.546875 28.832031 449.761719 41.367188 446.6875 57.230469 C 446.6875 57.230469 487.449219 69.171875 535.21875 145.539063 C 535.21875 145.539063 583.414063 241.046875 581.339844 341.007813 C 581.339844 341.007813 582.699219 303.953125 582.699219 297.195313 C 582.699219 297.195313 584.769531 316.140625 584.128906 321.96875 C 584.128906 321.96875 585.347656 314.917969 585.488281 308.0625 C 585.488281 308.0625 587.917969 317.660156 588.5625 341.746094 C 588.5625 341.746094 592.710938 324.902344 591.996094 277.46875 C 591.996094 277.464844 592.351563 244.277344 583.414063 212.605469 C 583.414063 212.605469 571.042969 170.753906 568.683594 164.144531 C 568.683594 164.144531 585.917969 207.316406 592.351563 236.496094 C 592.351563 236.496094 605.011719 282.070313 600.789063 346.003906 C 600.789063 346.003906 606.867188 334.839844 609.371094 290.390625 C 609.371094 290.390625 610.230469 251.375 600.648438 216.816406 L 591.851563 186.074219 C 591.851563 186.074219 602.292969 211.820313 607.441406 240.707031 C 607.441406 240.703125 616.378906 283.488281 608.300781 326.566406 C 608.300781 326.566406 606.152344 347.472656 603.363281 355.105469 C 603.367188 355.105469 608.015625 346.199219 612.015625 308.359375 C 612.015625 308.355469 616.308594 281.285156 609.585938 244.671875 C 609.585938 244.671875 605.222656 221.121094 600.433594 206.683594 C 600.433594 206.683594 579.980469 132.8125 551.089844 85.425781 C 551.09375 85.425781 523.632813 36.617188 483.800781 4.359375 C 483.800781 4.359375 488.804688 14.6875 461.058594 24.917969 "/>
<path style="fill:none;stroke-width:1.17798;stroke-linecap:round;stroke-linejoin:miter;stroke:rgb(0%,37.599182%,65.499878%);stroke-opacity:1;stroke-miterlimit:4;" d="M 6072.265625 2553.398438 C 6072.265625 2553.398438 5720.429688 4402.8125 4853.75 4898.710938 " transform="matrix(0.1,0,0,-0.1,0,491)"/>
<path style="fill:none;stroke-width:7.09459;stroke-linecap:round;stroke-linejoin:miter;stroke:rgb(0%,37.599182%,65.499878%);stroke-opacity:1;stroke-miterlimit:4;" d="M 4853.75 4898.710938 C 4853.75 4898.710938 5686.835938 4371.992188 6095.859375 2547.5 C 6095.859375 2547.5 6177.382813 2205.820313 6130.898438 1805.898438 " transform="matrix(0.1,0,0,-0.1,0,491)"/>
<path style=" stroke:none;fill-rule:evenodd;fill:rgb(0%,54.098511%,29.399109%);fill-opacity:1;" d="M 573.1875 75.4375 C 573.1875 75.4375 613.519531 96.734375 631.683594 161.351563 C 631.683594 161.347656 658.144531 254.019531 612.230469 338.265625 C 612.230469 338.265625 621.453125 323.824219 624.746094 313.546875 C 624.746094 313.546875 620.671875 330.777344 618.738281 333.472656 C 618.738281 333.472656 622.316406 327.058594 625.03125 323.386719 C 625.03125 323.382813 623.886719 330.140625 613.519531 347.910156 C 613.519531 347.910156 645.628906 315.164063 655.636719 245.304688 C 655.640625 245.304688 658.714844 268.3125 649.0625 298.960938 C 649.0625 298.960938 639.40625 332.734375 619.457031 355.648438 C 619.457031 355.648438 648.414063 337.730469 666.367188 261.65625 C 666.367188 261.65625 674.015625 229.152344 673.015625 198.75 C 673.015625 198.75 674.089844 119.496094 630.683594 65.648438 C 630.683594 65.648438 619.386719 51.15625 606.9375 43.328125 C 606.9375 43.324219 607.226563 51.550781 591.210938 59.1875 C 591.210938 59.1875 582.484375 63.25 573.1875 75.4375 "/>
<path style="fill:none;stroke-width:3.54741;stroke-linecap:round;stroke-linejoin:miter;stroke:rgb(0%,54.098511%,29.399109%);stroke-opacity:1;stroke-miterlimit:4;" d="M 6615.742188 2122.109375 C 6615.742188 2122.109375 7104.140625 3863.867188 6078.007813 4499.765625 " transform="matrix(0.1,0,0,-0.1,0,491)"/>
<path style="fill:none;stroke-width:7.09459;stroke-linecap:round;stroke-linejoin:miter;stroke:rgb(0%,54.098511%,29.399109%);stroke-opacity:1;stroke-miterlimit:4;" d="M 6078.007813 4499.765625 C 6078.007813 4499.765625 6851.015625 4070.898438 6740.898438 2559.257813 C 6740.898438 2559.257813 6706.5625 2105.976563 6424.804688 1617.890625 " transform="matrix(0.1,0,0,-0.1,0,491)"/>
<path style="fill:none;stroke-width:2.95169;stroke-linecap:round;stroke-linejoin:miter;stroke:rgb(100%,83.499146%,18.798828%);stroke-opacity:1;stroke-miterlimit:4;" d="M 6868.90625 2378.125 C 6868.90625 2378.125 7368.046875 1821.992188 6240.3125 1111.210938 " transform="matrix(0.1,0,0,-0.1,0,491)"/>
<path style="fill:none;stroke-width:3.54741;stroke-linecap:round;stroke-linejoin:miter;stroke:rgb(100%,83.499146%,18.798828%);stroke-opacity:1;stroke-miterlimit:4;" d="M 5434.375 3441.875 C 5434.375 3441.875 6965.390625 3201.992188 7117.734375 2252.304688 " transform="matrix(0.1,0,0,-0.1,0,491)"/>
<path style="fill:none;stroke-width:1.77371;stroke-linecap:round;stroke-linejoin:miter;stroke:rgb(100%,83.499146%,18.798828%);stroke-opacity:1;stroke-miterlimit:4;" d="M 5434.375 3441.875 C 5434.375 3441.875 7985.15625 2930.78125 6881.757813 1357.460938 " transform="matrix(0.1,0,0,-0.1,0,491)"/>
<path style="fill:none;stroke-width:13.6069;stroke-linecap:round;stroke-linejoin:miter;stroke:rgb(100%,83.499146%,18.798828%);stroke-opacity:1;stroke-miterlimit:4;" d="M 6770.234375 1996.289063 C 6770.234375 1996.289063 6914.648438 2622.890625 4669.921875 2867.1875 " transform="matrix(0.1,0,0,-0.1,0,491)"/>
<path style=" stroke:none;fill-rule:evenodd;fill:rgb(13.699341%,12.199402%,12.5%);fill-opacity:1;" d="M 427.523438 267.871094 C 427.523438 267.871094 450.117188 299.839844 479.796875 317.21875 C 479.796875 317.21875 508.042969 335.480469 542.867188 350.457031 C 542.867188 350.457031 540.722656 349.234375 537.359375 345.414063 C 537.359375 345.414063 541.222656 347.082031 543.511719 347.863281 C 543.511719 347.863281 542.296875 347.421875 540.722656 345.121094 C 540.722656 345.121094 550.660156 349.136719 552.664063 349.476563 C 552.664063 349.476563 547.800781 346.933594 543.511719 344.628906 C 543.511719 344.628906 516.910156 332.199219 496.671875 314.183594 C 496.671875 314.183594 508.113281 322.164063 519.699219 327.5 C 519.699219 327.5 539.363281 337.339844 558.8125 342.867188 C 558.816406 342.867188 552.164063 340.765625 545.726563 336.699219 C 545.726563 336.699219 509.398438 316.632813 507.828125 313.695313 C 507.828125 313.695313 521.988281 321.671875 523.558594 322.457031 C 523.5625 322.457031 527.132813 324.511719 528.066406 324.953125 C 528.066406 324.953125 527.992188 324.167969 525.132813 322.992188 C 525.136719 322.992188 508.828125 313.253906 504.679688 310.511719 C 504.679688 310.511719 476.148438 293.722656 454.339844 259.894531 C 454.339844 259.894531 445.6875 260.089844 441.109375 264.886719 C 441.113281 264.886719 438.75 267.972656 427.523438 267.871094 "/>
<path style="fill:none;stroke-width:3.54741;stroke-linecap:round;stroke-linejoin:miter;stroke:rgb(13.699341%,12.199402%,12.5%);stroke-opacity:1;stroke-miterlimit:4;" d="M 4258.046875 2229.296875 C 4258.046875 2229.296875 4438.984375 1837.695313 5209.84375 1515.585938 " transform="matrix(0.1,0,0,-0.1,0,491)"/>
<path style="fill:none;stroke-width:1.17798;stroke-linecap:round;stroke-linejoin:miter;stroke:rgb(13.699341%,12.199402%,12.5%);stroke-opacity:1;stroke-miterlimit:4;" d="M 4258.046875 2229.296875 C 4258.046875 2229.296875 4578.4375 1714.804688 5429.414063 1400.546875 " transform="matrix(0.1,0,0,-0.1,0,491)"/>
<path style=" stroke:none;fill-rule:evenodd;fill:rgb(100%,83.499146%,18.798828%);fill-opacity:1;" d="M 473.214844 199.433594 C 473.214844 199.433594 578.90625 215.25 617.023438 233.164063 C 617.023438 233.164063 711.847656 265.820313 660.644531 326.128906 C 660.644531 326.128906 650.488281 339.34375 635.761719 348.644531 C 635.761719 348.644531 638.476563 348.15625 644.054688 343.898438 C 644.054688 343.898438 639.476563 351.09375 624.746094 359.90625 C 624.746094 359.90625 637.476563 355.988281 659.355469 339.34375 C 659.355469 339.34375 687.675781 318.246094 691.109375 287.0625 C 691.109375 287.0625 693.96875 271.347656 688.246094 255.195313 C 688.25 255.195313 698.546875 264.59375 698.617188 287.0625 C 698.617188 287.0625 701.976563 335.675781 632.898438 378.3125 C 632.898438 378.3125 645.914063 373.953125 665.433594 360.394531 C 665.4375 360.394531 731.296875 318.246094 703.835938 249.761719 C 703.839844 249.761719 720.425781 275.703125 706.625 313.449219 C 706.625 313.449219 699.261719 339.003906 665.578125 367.835938 C 665.578125 367.835938 681.3125 360.640625 695.539063 338.367188 C 695.539063 338.367188 713.203125 314.328125 713.421875 287.453125 C 713.421875 287.453125 717.210938 248.144531 683.742188 214.953125 C 683.742188 214.953125 649.703125 179.609375 577.191406 158.464844 C 577.191406 158.464844 557.886719 152.390625 541.511719 150.191406 C 541.511719 150.191406 535.289063 165.902344 525.777344 174.664063 C 516.621094 183.085938 495.382813 191.75 473.214844 199.433594 "/>
</g>
</svg>
